<svg width="16" height="17" viewBox="0 0 16 17" fill="none" xmlns="http://www.w3.org/2000/svg">
<path d="M8.35355 3.47978C8.15829 3.28452 7.84171 3.28452 7.64645 3.47978L4.46447 6.66176C4.2692 6.85702 4.2692 7.1736 4.46447 7.36887C4.65973 7.56413 4.97631 7.56413 5.17157 7.36887L8 4.54044L10.8284 7.36887C11.0237 7.56413 11.3403 7.56413 11.5355 7.36887C11.7308 7.17361 11.7308 6.85702 11.5355 6.66176L8.35355 3.47978ZM7.5 12.5C7.5 12.7761 7.72386 13 8 13C8.27614 13 8.5 12.7761 8.5 12.5L7.5 12.5ZM7.5 3.83333L7.5 12.5L8.5 12.5L8.5 3.83333L7.5 3.83333Z" fill="#141418"/>
</svg>
