<svg width="100" height="100" viewBox="0 0 100 100" fill="none" xmlns="http://www.w3.org/2000/svg">
<path fill-rule="evenodd" clip-rule="evenodd" d="M2.92893 2.92893C0 5.85786 0 10.5719 0 20V80C0 89.4281 0 94.1421 2.92893 97.0711C5.85786 100 10.5719 100 20 100H80C89.4281 100 94.1421 100 97.0711 97.0711C100 94.1421 100 89.4281 100 80V20C100 10.5719 100 5.85786 97.0711 2.92893C94.1421 0 89.4281 0 80 0H20C10.5719 0 5.85786 0 2.92893 2.92893ZM36.8884 63.8012C40.2215 68.5231 44.4805 71.5322 49.6653 72.8284C54.8502 71.5322 59.1092 68.5231 62.4423 63.8012C65.7754 59.0792 67.442 53.9036 67.442 48.2744V35.053L49.6653 28.3867L31.8887 35.053V48.2744C31.8887 53.9036 33.5552 59.0792 36.8884 63.8012Z" fill="#8040A8"/>
</svg>
