<svg width="100" height="100" viewBox="0 0 100 100" fill="none" xmlns="http://www.w3.org/2000/svg">
<path fill-rule="evenodd" clip-rule="evenodd" d="M2.92893 2.92893C0 5.85786 0 10.5719 0 20V80C0 89.4281 0 94.1421 2.92893 97.0711C5.85786 100 10.5719 100 20 100H80C89.4281 100 94.1421 100 97.0711 97.0711C100 94.1421 100 89.4281 100 80V20C100 10.5719 100 5.85786 97.0711 2.92893C94.1421 0 89.4281 0 80 0H20C10.5719 0 5.85786 0 2.92893 2.92893ZM48.2752 69.0107C48.7196 69.4472 49.2566 69.6654 49.8862 69.6654C50.1825 69.6654 50.4418 69.6284 50.664 69.5543C50.8862 69.4803 51.1454 69.2951 51.4417 68.9988L69.9405 50.4444C70.5701 49.8148 71.0516 49.1204 71.3849 48.3612C71.7182 47.602 71.8849 46.8521 71.8849 46.1114C71.8849 45.0373 71.7275 44.093 71.4127 43.2782C71.0979 42.4634 70.6072 41.7227 69.9405 41.0561L60.5522 31.6123C59.8856 30.9456 59.1449 30.4549 58.3302 30.1401C57.5154 29.8253 56.6266 29.6679 55.6637 29.6679C54.8859 29.6679 54.1082 29.8253 53.3305 30.1401C52.5527 30.4549 51.8491 30.9086 51.2195 31.5012L50.8862 31.89L60.83 41.8338C61.3114 42.3153 61.654 42.806 61.8577 43.306C62.0614 43.8059 62.1632 44.3152 62.1632 44.8337C62.1632 46.1299 61.7559 47.1576 60.9411 47.9168C60.1263 48.676 59.1264 49.0556 57.9413 49.0556C57.2376 49.0556 56.6358 48.9167 56.1358 48.639C55.6359 48.3612 55.1822 48.0186 54.7748 47.6113L47.7197 40.5561L35.3316 52.9443C35.1094 53.1665 34.9427 53.4072 34.8316 53.6664C34.7205 53.9257 34.665 54.2034 34.665 54.4997C34.665 55.1136 34.8779 55.6281 35.3038 56.0433C35.7297 56.4586 36.2575 56.6663 36.887 56.6663C37.2574 56.6663 37.5722 56.6107 37.8314 56.4996C38.0907 56.3885 38.3129 56.2403 38.4981 56.0552L48.7196 45.778L49.8862 46.9446L39.6091 57.2218C39.3869 57.444 39.2202 57.6847 39.1091 57.9439C38.998 58.2032 38.9425 58.4809 38.9425 58.7772C38.9425 59.3698 39.1647 59.8883 39.6091 60.3327C40.0535 60.7771 40.572 60.9993 41.1646 60.9993C41.4979 60.9993 41.7941 60.9438 42.0534 60.8327C42.3126 60.7215 42.5534 60.5549 42.7756 60.3327L53.0527 50.1111L54.2193 51.2777L43.9422 61.5548C43.757 61.74 43.6088 61.953 43.4977 62.1937C43.3866 62.4344 43.3311 62.7399 43.3311 63.1103C43.3311 63.7399 43.544 64.2676 43.9699 64.6935C44.3958 65.1194 44.9236 65.3324 45.5532 65.3324C45.8494 65.3324 46.1272 65.2768 46.3865 65.1657C46.6457 65.0546 46.8864 64.888 47.1086 64.6657L57.3858 54.3886L58.5524 55.5552L48.2752 65.8323C48.053 66.0546 47.8864 66.3045 47.7753 66.5823C47.6642 66.8601 47.6086 67.1286 47.6086 67.3878C47.6086 68.0331 47.8308 68.5741 48.2752 69.0107ZM29.3875 50.4444L32.3873 53.4442L47.6642 38.1674L55.8859 46.3891C56.2192 46.7224 56.5617 46.9724 56.9136 47.1391C57.2654 47.3057 57.608 47.3891 57.9413 47.3891C58.682 47.3891 59.2931 47.1483 59.7745 46.6669C60.256 46.1854 60.4967 45.5743 60.4967 44.8337C60.4967 44.5374 60.4319 44.2411 60.3022 43.9448C60.1726 43.6485 59.9412 43.3337 59.6078 43.0004L48.2197 31.6123C47.479 30.8716 46.7198 30.3623 45.942 30.0846C45.1643 29.8068 44.2755 29.6679 43.2755 29.6679C42.4978 29.6679 41.7016 29.8439 40.8868 30.1957C40.072 30.5475 39.3684 31.0197 38.7758 31.6123L29.3875 41.0561C28.832 41.6116 28.3691 42.2968 27.9987 43.1115C27.6284 43.9263 27.4432 44.8151 27.4432 45.778C27.4432 46.6669 27.6098 47.5187 27.9432 48.3334C28.2765 49.1482 28.7579 49.8519 29.3875 50.4444Z" fill="#8040A8"/>
</svg>
