<svg width="100" height="100" viewBox="0 0 100 100" fill="none" xmlns="http://www.w3.org/2000/svg">
<path fill-rule="evenodd" clip-rule="evenodd" d="M2.92893 2.92893C0 5.85786 0 10.5719 0 20V80C0 89.4281 0 94.1421 2.92893 97.0711C5.85786 100 10.5719 100 20 100H80C89.4281 100 94.1421 100 97.0711 97.0711C100 94.1421 100 89.4281 100 80V20C100 10.5719 100 5.85786 97.0711 2.92893C94.1421 0 89.4281 0 80 0H20C10.5719 0 5.85786 0 2.92893 2.92893ZM54.1097 41.7752V44.4417C55.2948 43.8121 56.5355 43.3214 57.8317 42.9695C59.1279 42.6177 60.4797 42.4418 61.887 42.4418C62.887 42.4418 63.8406 42.5251 64.748 42.6918C65.6553 42.8584 66.5534 43.1084 67.4422 43.4417V40.9974C66.5534 40.7752 65.6461 40.59 64.7202 40.4419C63.7943 40.2938 62.8499 40.2197 61.887 40.2197C60.4797 40.2197 59.1372 40.3493 57.8595 40.6086C56.5818 40.8678 55.3319 41.2567 54.1097 41.7752ZM54.1097 53.9411V56.6631C55.2948 55.9965 56.5355 55.4965 57.8317 55.1632C59.1279 54.8299 60.4797 54.6632 61.887 54.6632C62.887 54.6632 63.8406 54.7466 64.748 54.9132C65.6553 55.0799 66.5534 55.3299 67.4422 55.6632V53.2189C66.5534 52.9967 65.6461 52.8115 64.7202 52.6634C63.7943 52.5152 62.8499 52.4412 61.887 52.4412C60.4797 52.4412 59.1372 52.5662 57.8595 52.8161C56.5818 53.0661 55.3319 53.4411 54.1097 53.9411ZM54.1097 47.8859V50.5524C55.2948 49.9228 56.5355 49.4321 57.8317 49.0803C59.1279 48.7284 60.4797 48.5525 61.887 48.5525C62.887 48.5525 63.8406 48.6358 64.748 48.8025C65.6553 48.9692 66.5534 49.2191 67.4422 49.5524V47.1082C66.5534 46.8859 65.6461 46.7008 64.7202 46.5526C63.7943 46.4045 62.8499 46.3304 61.887 46.3304C60.4797 46.3304 59.1372 46.46 57.8595 46.7193C56.5818 46.9785 55.3319 47.3674 54.1097 47.8859ZM56.8873 60.3573C55.1097 60.8203 53.295 61.5147 51.4432 62.4405V38.7198C53.1098 37.6087 54.8782 36.7477 56.7485 36.1366C58.6187 35.5255 60.5538 35.22 62.5537 35.22C63.9741 35.22 65.3847 35.3681 66.7855 35.6644C68.1862 35.9607 69.5162 36.4236 70.7754 37.0532V60.8851C69.7014 60.5147 68.4144 60.2184 66.9145 59.9962C65.4146 59.774 63.961 59.6629 62.5537 59.6629C60.5538 59.6629 58.665 59.8944 56.8873 60.3573ZM43.6104 64.1904C45.8325 64.9496 47.8879 66.0329 49.7767 67.4402C51.6654 66.0699 53.6838 64.9959 55.8319 64.2182C57.9799 63.4405 60.2205 63.0516 62.5537 63.0516C63.9068 63.0516 65.2357 63.209 66.5405 63.5238C67.8453 63.8386 69.1273 64.2552 70.3865 64.7737C71.2013 65.2922 72.0253 65.282 72.8586 64.743C73.6918 64.204 74.1085 63.418 74.1085 62.385V36.6644C74.1085 36.1088 73.9696 35.5996 73.6918 35.1367C73.4141 34.6737 73.016 34.3127 72.4975 34.0534C70.942 33.3127 69.3327 32.7665 67.6694 32.4146C66.0062 32.0628 64.3009 31.8869 62.5537 31.8869C60.2575 31.8869 58.0262 32.2017 55.8596 32.8313C53.6931 33.4609 51.6654 34.4238 49.7767 35.72C47.8509 34.4238 45.7862 33.4609 43.5826 32.8313C41.3791 32.2017 39.1107 31.8869 36.7775 31.8869C35.0369 31.8869 33.324 32.0628 31.6389 32.4146C29.9538 32.7665 28.3336 33.3127 26.7781 34.0534C26.2596 34.3127 25.8708 34.6737 25.6115 35.1367C25.3523 35.5996 25.2227 36.1088 25.2227 36.6644V62.385C25.2227 63.3479 25.6199 64.0886 26.4142 64.6071C27.2086 65.1255 28.0336 65.1811 28.8891 64.7737C30.1853 64.2923 31.4858 63.8849 32.7906 63.5516C34.0954 63.2183 35.4244 63.0516 36.7775 63.0516C39.1107 63.0516 41.3883 63.4312 43.6104 64.1904Z" fill="#8040A8"/>
</svg>
