<svg width="30" height="30" viewBox="0 0 30 30" fill="none" xmlns="http://www.w3.org/2000/svg">
<mask id="path-1-inside-1_213_29830" fill="white">
<path d="M24.9507 11.9547C25.3963 11.8184 25.8714 12.0686 25.974 12.5232C26.4985 14.8467 26.2732 17.2851 25.3182 19.4831C24.2507 21.9399 22.3417 23.9351 19.9345 25.1101C17.5273 26.285 14.7798 26.5624 12.1863 25.8924C9.59274 25.2225 7.32337 23.6491 5.78634 21.4553C4.24931 19.2615 3.5455 16.5913 3.8015 13.9249C4.05749 11.2585 5.2565 8.7709 7.18285 6.90961C9.1092 5.04832 11.6365 3.93545 14.3101 3.77118C16.7021 3.62421 19.0707 4.24515 21.0755 5.53157C21.4677 5.78323 21.5407 6.31523 21.2603 6.68746C20.98 7.0597 20.4527 7.13066 20.0572 6.88421C18.3762 5.83666 16.4044 5.33318 14.4136 5.4555C12.141 5.59514 9.99282 6.54107 8.35542 8.12317C6.71802 9.70526 5.69887 11.8197 5.48127 14.0861C5.26368 16.3526 5.86192 18.6223 7.16839 20.487C8.47486 22.3517 10.4038 23.6891 12.6083 24.2586C14.8128 24.8281 17.1482 24.5922 19.1943 23.5936C21.2405 22.5949 22.8631 20.8989 23.7705 18.8106C24.5653 16.9812 24.7654 14.956 24.3549 13.0183C24.2584 12.5625 24.5051 12.0911 24.9507 11.9547Z"/>
</mask>
<path d="M24.9507 11.9547C25.3963 11.8184 25.8714 12.0686 25.974 12.5232C26.4985 14.8467 26.2732 17.2851 25.3182 19.4831C24.2507 21.9399 22.3417 23.9351 19.9345 25.1101C17.5273 26.285 14.7798 26.5624 12.1863 25.8924C9.59274 25.2225 7.32337 23.6491 5.78634 21.4553C4.24931 19.2615 3.5455 16.5913 3.8015 13.9249C4.05749 11.2585 5.2565 8.7709 7.18285 6.90961C9.1092 5.04832 11.6365 3.93545 14.3101 3.77118C16.7021 3.62421 19.0707 4.24515 21.0755 5.53157C21.4677 5.78323 21.5407 6.31523 21.2603 6.68746C20.98 7.0597 20.4527 7.13066 20.0572 6.88421C18.3762 5.83666 16.4044 5.33318 14.4136 5.4555C12.141 5.59514 9.99282 6.54107 8.35542 8.12317C6.71802 9.70526 5.69887 11.8197 5.48127 14.0861C5.26368 16.3526 5.86192 18.6223 7.16839 20.487C8.47486 22.3517 10.4038 23.6891 12.6083 24.2586C14.8128 24.8281 17.1482 24.5922 19.1943 23.5936C21.2405 22.5949 22.8631 20.8989 23.7705 18.8106C24.5653 16.9812 24.7654 14.956 24.3549 13.0183C24.2584 12.5625 24.5051 12.0911 24.9507 11.9547Z" stroke="#8040A8" stroke-width="3" mask="url(#path-1-inside-1_213_29830)"/>
<mask id="path-2-inside-2_213_29830" fill="white">
<path d="M19.6875 15C19.6875 17.5888 17.5888 19.6875 15 19.6875C12.4112 19.6875 10.3125 17.5888 10.3125 15C10.3125 12.4112 12.4112 10.3125 15 10.3125C17.5888 10.3125 19.6875 12.4112 19.6875 15ZM11.4844 15C11.4844 16.9416 13.0584 18.5156 15 18.5156C16.9416 18.5156 18.5156 16.9416 18.5156 15C18.5156 13.0584 16.9416 11.4844 15 11.4844C13.0584 11.4844 11.4844 13.0584 11.4844 15Z"/>
</mask>
<path d="M19.6875 15C19.6875 17.5888 17.5888 19.6875 15 19.6875C12.4112 19.6875 10.3125 17.5888 10.3125 15C10.3125 12.4112 12.4112 10.3125 15 10.3125C17.5888 10.3125 19.6875 12.4112 19.6875 15ZM11.4844 15C11.4844 16.9416 13.0584 18.5156 15 18.5156C16.9416 18.5156 18.5156 16.9416 18.5156 15C18.5156 13.0584 16.9416 11.4844 15 11.4844C13.0584 11.4844 11.4844 13.0584 11.4844 15Z" stroke="#8040A8" stroke-width="2" mask="url(#path-2-inside-2_213_29830)"/>
<path d="M15 22.5937C15 23.0597 14.6213 23.4419 14.1576 23.3953C13.3386 23.3132 12.5344 23.1114 11.7711 22.7952C10.7474 22.3712 9.81728 21.7497 9.03379 20.9662C8.25029 20.1827 7.62879 19.2526 7.20477 18.2289C6.88859 17.4656 6.68683 16.6614 6.60465 15.8424C6.55813 15.3787 6.94026 15 7.40625 15C7.87224 15 8.24457 15.3792 8.30267 15.8416C8.37772 16.4388 8.53249 17.0246 8.76381 17.5831C9.10303 18.4021 9.60023 19.1462 10.227 19.773C10.8538 20.3998 11.5979 20.897 12.4169 21.2362C12.9754 21.4675 13.5612 21.6223 14.1584 21.6973C14.6208 21.7554 15 22.1278 15 22.5937Z" fill="#8040A8"/>
<circle cx="15" cy="14.9995" r="0.9375" fill="#8040A8"/>
<path d="M21.5625 15.4688V11.25L24.8438 7.5V3.75" stroke="#8040A8" stroke-width="1.5" stroke-linecap="round" stroke-linejoin="round"/>
</svg>
