<svg width="30" height="30" viewBox="0 0 30 30" fill="none" xmlns="http://www.w3.org/2000/svg">
<path d="M21.2903 4.83887V15.484M21.2903 15.484V25.1614M21.2903 15.484H9.67742M21.2903 15.484H26.129M9.67742 4.83887V15.484M9.67742 15.484V25.1614M9.67742 15.484H3.87097M9.67742 10.6453H3.87097M9.67742 20.3227H3.87097M21.2903 20.3227H26.129M26.129 10.6453H21.2903M6.7742 4.83887H23.2258C24.8292 4.83887 26.129 6.13869 26.129 7.74209V22.2582C26.129 23.8616 24.8292 25.1614 23.2258 25.1614H6.7742C5.17079 25.1614 3.87097 23.8616 3.87097 22.2582V7.74209C3.87097 6.13869 5.17079 4.83887 6.7742 4.83887Z" stroke="#8040A8" stroke-width="1.5"/>
</svg>
