<svg width="30" height="30" viewBox="0 0 30 30" fill="none" xmlns="http://www.w3.org/2000/svg">
<mask id="path-1-inside-1_68_381918" fill="white">
<path d="M19.684 15.0003C20.0366 15.0003 20.3265 14.7134 20.2843 14.3633C20.1424 13.1863 19.6104 12.0835 18.7636 11.2367C17.7654 10.2385 16.4116 9.67773 14.9999 9.67773C13.5883 9.67773 12.2345 10.2385 11.2363 11.2367C10.3895 12.0835 9.85747 13.1863 9.71561 14.3633C9.67341 14.7134 9.96326 15.0003 10.3159 15.0003V15.0003C10.6686 15.0003 10.9493 14.7127 11.0048 14.3644C11.138 13.5271 11.5323 12.7469 12.1394 12.1397C12.898 11.3811 13.927 10.9549 14.9999 10.9549C16.0729 10.9549 17.1019 11.3811 17.8605 12.1397C18.4676 12.7469 18.8619 13.5271 18.9951 14.3644C19.0506 14.7127 19.3313 15.0003 19.684 15.0003V15.0003Z"/>
</mask>
<path d="M19.684 15.0003C20.0366 15.0003 20.3265 14.7134 20.2843 14.3633C20.1424 13.1863 19.6104 12.0835 18.7636 11.2367C17.7654 10.2385 16.4116 9.67773 14.9999 9.67773C13.5883 9.67773 12.2345 10.2385 11.2363 11.2367C10.3895 12.0835 9.85747 13.1863 9.71561 14.3633C9.67341 14.7134 9.96326 15.0003 10.3159 15.0003V15.0003C10.6686 15.0003 10.9493 14.7127 11.0048 14.3644C11.138 13.5271 11.5323 12.7469 12.1394 12.1397C12.898 11.3811 13.927 10.9549 14.9999 10.9549C16.0729 10.9549 17.1019 11.3811 17.8605 12.1397C18.4676 12.7469 18.8619 13.5271 18.9951 14.3644C19.0506 14.7127 19.3313 15.0003 19.684 15.0003V15.0003Z" stroke="#8040A8" stroke-width="3" mask="url(#path-1-inside-1_68_381918)"/>
<mask id="path-2-inside-2_68_381918" fill="white">
<path d="M26.3709 15.0001C26.7718 15.0001 27.099 14.6748 27.075 14.2746C26.8983 11.331 25.6507 8.54337 23.5537 6.44638C21.2851 4.1778 18.2082 2.90332 15 2.90332C11.7917 2.90332 8.71485 4.1778 6.44626 6.44638C4.34927 8.54337 3.10169 11.331 2.92495 14.2746C2.90093 14.6748 3.22815 15.0001 3.629 15.0001V15.0001C4.02986 15.0001 4.35223 14.6747 4.37953 14.2748C4.55415 11.7165 5.648 9.29753 7.47271 7.47283C9.46906 5.47647 12.1767 4.35493 15 4.35493C17.8232 4.35493 20.5309 5.47647 22.5272 7.47283C24.3519 9.29753 25.4458 11.7165 25.6204 14.2748C25.6477 14.6747 25.9701 15.0001 26.3709 15.0001V15.0001Z"/>
</mask>
<path d="M26.3709 15.0001C26.7718 15.0001 27.099 14.6748 27.075 14.2746C26.8983 11.331 25.6507 8.54337 23.5537 6.44638C21.2851 4.1778 18.2082 2.90332 15 2.90332C11.7917 2.90332 8.71485 4.1778 6.44626 6.44638C4.34927 8.54337 3.10169 11.331 2.92495 14.2746C2.90093 14.6748 3.22815 15.0001 3.629 15.0001V15.0001C4.02986 15.0001 4.35223 14.6747 4.37953 14.2748C4.55415 11.7165 5.648 9.29753 7.47271 7.47283C9.46906 5.47647 12.1767 4.35493 15 4.35493C17.8232 4.35493 20.5309 5.47647 22.5272 7.47283C24.3519 9.29753 25.4458 11.7165 25.6204 14.2748C25.6477 14.6747 25.9701 15.0001 26.3709 15.0001V15.0001Z" stroke="#8040A8" stroke-width="3" mask="url(#path-2-inside-2_68_381918)"/>
<mask id="path-3-inside-3_68_381918" fill="white">
<path d="M23.3249 15C23.6977 15 24.0025 14.6974 23.9746 14.3256C23.8854 13.1386 23.5614 11.9787 23.0189 10.9141C22.3741 9.64859 21.439 8.55367 20.2899 7.71885C19.1409 6.88402 17.8106 6.33299 16.4078 6.1108C15.2277 5.92389 14.0244 5.97418 12.8679 6.25616C12.5057 6.34447 12.3121 6.72791 12.4273 7.08245V7.08245C12.5425 7.437 12.9229 7.62791 13.2862 7.5444C14.239 7.32542 15.227 7.29061 16.1966 7.44418C17.389 7.63304 18.5197 8.10142 19.4964 8.81102C20.4731 9.52062 21.268 10.4513 21.8161 11.527C22.2618 12.4017 22.534 13.3521 22.6201 14.3259C22.653 14.6972 22.9521 15 23.3249 15V15Z"/>
</mask>
<path d="M23.3249 15C23.6977 15 24.0025 14.6974 23.9746 14.3256C23.8854 13.1386 23.5614 11.9787 23.0189 10.9141C22.3741 9.64859 21.439 8.55367 20.2899 7.71885C19.1409 6.88402 17.8106 6.33299 16.4078 6.1108C15.2277 5.92389 14.0244 5.97418 12.8679 6.25616C12.5057 6.34447 12.3121 6.72791 12.4273 7.08245V7.08245C12.5425 7.437 12.9229 7.62791 13.2862 7.5444C14.239 7.32542 15.227 7.29061 16.1966 7.44418C17.389 7.63304 18.5197 8.10142 19.4964 8.81102C20.4731 9.52062 21.268 10.4513 21.8161 11.527C22.2618 12.4017 22.534 13.3521 22.6201 14.3259C22.653 14.6972 22.9521 15 23.3249 15V15Z" stroke="#8040A8" stroke-width="2" mask="url(#path-3-inside-3_68_381918)"/>
<path d="M15.4516 15C16.0039 15 16.4716 14.5035 16.1205 14.0772C16.091 14.0413 16.0596 14.0067 16.0264 13.9735C15.7542 13.7013 15.3849 13.5483 15 13.5483C14.615 13.5483 14.2457 13.7013 13.9735 13.9735C13.9403 14.0067 13.9089 14.0413 13.8794 14.0772C13.5283 14.5035 13.9961 15 14.5483 15L15 15H15.4516Z" fill="#8040A8"/>
<path d="M24.5561 16.4517H5.44381C4.14924 16.4517 3.19576 17.6629 3.49972 18.9212L4.26766 22.1005C4.70141 23.8962 6.30847 25.1613 8.15584 25.1613H21.8441C23.6915 25.1613 25.2985 23.8962 25.7323 22.1005L26.5002 18.9212C26.8042 17.6629 25.8507 16.4517 24.5561 16.4517Z" stroke="#8040A8" stroke-width="1.5" stroke-linecap="round" stroke-linejoin="round"/>
</svg>
