<svg width="30" height="30" viewBox="0 0 30 30" fill="none" xmlns="http://www.w3.org/2000/svg">
<path d="M10.6452 13.5485L8.64759 15.5461C8.18757 16.0061 8.28234 16.776 8.8402 17.1107L12.1657 19.106C12.4372 19.2689 12.7479 19.355 13.0645 19.355V19.355M19.3548 13.5485L21.3524 15.5461C21.8125 16.0061 21.7177 16.776 21.1598 17.1107L17.8343 19.106C17.5628 19.2689 17.2521 19.355 16.9355 19.355V19.355M13.0645 19.355V22.2582M13.0645 19.355H16.9355M13.0645 22.2582L11.2738 22.9745C10.8941 23.1264 10.6452 23.4941 10.6452 23.903V24.7472C10.6452 25.0124 10.7505 25.2668 10.9381 25.4543L11.32 25.8363C11.5076 26.0238 11.7619 26.1292 12.0271 26.1292H17.9729C18.2381 26.1292 18.4925 26.0238 18.68 25.8363L19.062 25.4543C19.2495 25.2668 19.3548 25.0124 19.3548 24.7472V23.903C19.3548 23.4941 19.1059 23.1264 18.7262 22.9745L16.9355 22.2582M13.0645 22.2582H16.9355M16.9355 19.355V22.2582M11.6129 6.77432V6.40468C11.6129 5.44503 12.1551 4.56774 13.0134 4.13857V4.13857C13.3652 3.96267 13.7532 3.87109 14.1465 3.87109H15.8535C16.2469 3.87109 16.6348 3.96267 16.9866 4.13857V4.13857C17.8449 4.56774 18.3871 5.44503 18.3871 6.40468V6.77432V8.76922C18.3871 9.36149 18.2118 9.94052 17.8833 10.4333L17.2568 11.373C16.7538 12.1275 15.9069 12.5808 15 12.5808V12.5808C14.0931 12.5808 13.2462 12.1275 12.7432 11.373L12.1168 10.4333C11.7882 9.94052 11.6129 9.36149 11.6129 8.76922V6.77432Z" stroke="#8040A8" stroke-width="1.5" stroke-linecap="round"/>
</svg>
