<svg width="7" height="6" viewBox="0 0 7 6" fill="none" xmlns="http://www.w3.org/2000/svg">
<path d="M2.42246 5.48386C2.36396 5.48386 2.30911 5.47452 2.25792 5.45585C2.20673 5.43747 2.15919 5.40606 2.11531 5.36161L0.228536 3.45008C0.148092 3.36858 0.109625 3.26293 0.113135 3.13312C0.116938 3.00361 0.159061 2.89811 0.239505 2.81661C0.319949 2.73511 0.422333 2.69436 0.546655 2.69436C0.670978 2.69436 0.773361 2.73511 0.853805 2.81661L2.42246 4.40584L6.14117 0.638362C6.22162 0.556863 6.3259 0.516113 6.45403 0.516113C6.58186 0.516113 6.686 0.556863 6.76644 0.638362C6.84689 0.719861 6.88711 0.825365 6.88711 0.954875C6.88711 1.08468 6.84689 1.19033 6.76644 1.27183L2.72961 5.36161C2.68574 5.40606 2.6382 5.43747 2.58701 5.45585C2.53582 5.47452 2.48097 5.48386 2.42246 5.48386V5.48386Z" fill="#F6F6F6"/>
</svg>
