<svg width="30" height="30" viewBox="0 0 30 30" fill="none" xmlns="http://www.w3.org/2000/svg">
<path d="M25.8631 13.5492C26.4185 14.2758 26.4185 15.2566 25.8631 15.982C24.1134 18.266 19.9158 22.9688 15.015 22.9688C10.1142 22.9688 5.91657 18.266 4.16696 15.982C3.8967 15.6341 3.75 15.2062 3.75 14.7656C3.75 14.3251 3.8967 13.8971 4.16696 13.5492C5.91657 11.2652 10.1142 6.5625 15.015 6.5625C19.9158 6.5625 24.1134 11.2652 25.8631 13.5492V13.5492Z" stroke="#A1A1A3" stroke-width="2" stroke-linecap="round" stroke-linejoin="round"/>
<path d="M15.0146 18.2812C16.9563 18.2812 18.5303 16.7073 18.5303 14.7656C18.5303 12.824 16.9563 11.25 15.0146 11.25C13.073 11.25 11.499 12.824 11.499 14.7656C11.499 16.7073 13.073 18.2812 15.0146 18.2812Z" stroke="#A1A1A3" stroke-width="2" stroke-linecap="round" stroke-linejoin="round"/>
</svg>
