<svg width="30" height="31" viewBox="0 0 30 31" fill="none" xmlns="http://www.w3.org/2000/svg">
<rect y="0.5" width="30" height="30" rx="15" fill="#F6F6F6"/>
<path d="M21.8076 9.25L8.34186 9.25C8.11865 9.25 7.90458 9.334 7.74675 9.48353C7.58891 9.63306 7.50024 9.83586 7.50024 10.0473L7.50024 12.1124C7.50024 12.5294 7.67951 12.9392 7.9909 13.2342L12.5499 17.5533L12.5499 23.6018C12.5501 23.7376 12.5868 23.8712 12.6567 23.9898C12.7266 24.1084 12.8273 24.2082 12.9492 24.2797C13.0712 24.3511 13.2103 24.3919 13.3536 24.3982C13.4968 24.4044 13.6394 24.3759 13.7677 24.3154L17.1342 22.7208C17.4195 22.5852 17.5996 22.3093 17.5996 22.0072V17.5533L22.1586 13.2342C22.47 12.9392 22.6493 12.5294 22.6493 12.1124V10.0473C22.6493 9.83586 22.5606 9.63306 22.4027 9.48353C22.2449 9.334 22.0308 9.25 21.8076 9.25ZM16.163 16.6595C16.0846 16.7334 16.0225 16.8213 15.9802 16.918C15.9379 17.0148 15.9162 17.1185 15.9164 17.2232V21.5144L14.2331 22.3117L14.2331 17.2232C14.2333 17.1185 14.2116 17.0148 14.1693 16.918C14.1269 16.8213 14.0648 16.7334 13.9865 16.6595L9.18347 12.1124V10.8446L20.9669 10.8446L20.9686 12.1068L16.163 16.6595Z" fill="#8040A8"/>
</svg>
