<svg width="24" height="24" viewBox="0 0 24 24" fill="none" xmlns="http://www.w3.org/2000/svg">
<path d="M11.19 18H12.99V13.02H18V11.22H12.99V6H11.19V11.22H6V13.02H11.19V18ZM12.008 24C10.3533 24 8.7983 23.685 7.34298 23.055C5.88766 22.425 4.615 21.565 3.525 20.475C2.435 19.385 1.575 18.1116 0.945 16.6548C0.315 15.198 0 13.6414 0 11.985C0 10.3286 0.315 8.77203 0.945 7.31523C1.575 5.85841 2.435 4.59 3.525 3.51C4.615 2.43 5.88841 1.575 7.34523 0.945C8.80203 0.315 10.3586 0 12.015 0C13.6714 0 15.228 0.315 16.6848 0.945C18.1416 1.575 19.41 2.43 20.49 3.51C21.57 4.59 22.425 5.86 23.055 7.32C23.685 8.78 24 10.3373 24 11.992C24 13.6467 23.685 15.2017 23.055 16.657C22.425 18.1123 21.57 19.3832 20.49 20.4695C19.41 21.5558 18.14 22.4158 16.68 23.0495C15.22 23.6832 13.6627 24 12.008 24Z" fill="#A1A1A3"/>
</svg>
