<svg width="24" height="24" viewBox="0 0 24 24" fill="none" xmlns="http://www.w3.org/2000/svg">
<path fill-rule="evenodd" clip-rule="evenodd" d="M12 24C18.6274 24 24 18.6274 24 12C24 5.37258 18.6274 0 12 0C5.37258 0 0 5.37258 0 12C0 18.6274 5.37258 24 12 24ZM13.1158 18.5996C13.3702 18.5996 13.5871 18.5097 13.7667 18.3299L18.3153 13.7756C18.5048 13.5859 18.5996 13.3637 18.5996 13.109C18.5996 12.8543 18.5048 12.6321 18.3153 12.4423L12.7343 6.85429C12.6345 6.75442 12.5248 6.687 12.4051 6.65204C12.2854 6.61709 12.1657 6.59961 12.046 6.59961H7.49736C7.23801 6.59961 7.02355 6.6845 6.85397 6.85429C6.6844 7.02408 6.59961 7.23881 6.59961 7.49849V12.0528C6.59961 12.1726 6.61707 12.2875 6.65198 12.3974C6.68689 12.5072 6.75422 12.6121 6.85397 12.712L12.4649 18.3299C12.6445 18.5097 12.8615 18.5996 13.1158 18.5996ZM9.61457 9.60335C9.45996 9.75816 9.27791 9.83556 9.06844 9.83556C8.85896 9.83556 8.67692 9.75816 8.5223 9.60335C8.36769 9.44855 8.29038 9.26628 8.29038 9.05654C8.29038 8.8468 8.36769 8.66453 8.5223 8.50972C8.67692 8.35492 8.85896 8.27751 9.06844 8.27751C9.27791 8.27751 9.45996 8.35492 9.61457 8.50972C9.76919 8.66453 9.84649 8.8468 9.84649 9.05654C9.84649 9.26628 9.76919 9.44855 9.61457 9.60335Z" fill="#A1A1A3"/>
</svg>
