<svg width="20" height="20" viewBox="0 0 20 20" fill="none" xmlns="http://www.w3.org/2000/svg">
<path d="M18.3463 8.45526L10.589 1.3185C10.3368 1.08649 10.0047 0.960927 9.66211 0.968062C9.31951 0.975196 8.99293 1.11447 8.75063 1.35678L1.61613 8.49131L1.25 8.85741V19.3752H8.125V12.8127H11.875V19.3752H18.75V8.82666L18.3463 8.45526ZM9.68898 2.2178C9.7 2.2178 9.6932 2.22018 9.68848 2.22483C9.68359 2.22018 9.67797 2.2178 9.68898 2.2178ZM17.5 18.1252H13.125V12.8127C13.125 12.4812 12.9933 12.1632 12.7589 11.9288C12.5245 11.6944 12.2065 11.5627 11.875 11.5627H8.125C7.79348 11.5627 7.47554 11.6944 7.24112 11.9288C7.0067 12.1632 6.875 12.4812 6.875 12.8127V18.1252H2.5V9.37518L9.68898 2.24065C9.68949 2.24018 9.68953 2.23975 9.68992 2.23928L17.5 9.37518V18.1252Z" fill="#383838"/>
</svg>
