<svg width="100" height="100" viewBox="0 0 100 100" fill="none" xmlns="http://www.w3.org/2000/svg">
<path fill-rule="evenodd" clip-rule="evenodd" d="M0 20C0 10.5719 0 5.85786 2.92893 2.92893C5.85786 0 10.5719 0 20 0H80C89.4281 0 94.1421 0 97.0711 2.92893C100 5.85786 100 10.5719 100 20V80C100 89.4281 100 94.1421 97.0711 97.0711C94.1421 100 89.4281 100 80 100H20C10.5719 100 5.85786 100 2.92893 97.0711C0 94.1421 0 89.4281 0 80V20ZM71.5827 35.1836H28.1055C27.2819 35.1836 26.492 35.4958 25.9096 36.0514C25.3272 36.6071 25 37.3607 25 38.1466V61.8503C25 62.6361 25.3272 63.3897 25.9096 63.9454C26.492 64.5011 27.2819 64.8132 28.1055 64.8132H71.5827C72.4063 64.8132 73.1962 64.5011 73.7786 63.9454C74.361 63.3897 74.6882 62.6361 74.6882 61.8503V38.1466C74.6882 37.3607 74.361 36.6071 73.7786 36.0514C73.1962 35.4958 72.4063 35.1836 71.5827 35.1836ZM28.1055 61.8503V54.6651C30.0466 54.8014 31.87 55.6047 33.2377 56.9259C34.6053 58.2472 35.4245 59.9967 35.5432 61.8503H28.1055ZM28.1055 45.3317V38.1466H35.5432C35.4245 40.0001 34.6053 41.7497 33.2377 43.0709C31.87 44.3921 30.0466 45.1954 28.1055 45.3317ZM49.8441 60.591C44.456 60.591 40.0617 55.8354 40.0617 49.9984C40.0617 44.1614 44.456 39.4058 49.8441 39.4058C55.2322 39.4058 59.6264 44.1614 59.6264 49.9984C59.6264 55.8354 55.2322 60.591 49.8441 60.591ZM71.5827 61.8503H64.2071C64.3241 60.0061 65.1344 58.2642 66.4893 56.9442C67.8442 55.6243 69.6527 54.8151 71.5827 54.6651V61.8503ZM71.5827 45.3317C69.6527 45.1818 67.8442 44.3725 66.4893 43.0526C65.1344 41.7327 64.3241 39.9907 64.2071 38.1466H71.5827V45.3317ZM56.0568 50.0004C56.0568 53.8623 53.276 56.993 49.8458 56.993C46.4155 56.993 43.6348 53.8623 43.6348 50.0004C43.6348 46.1385 46.4155 43.0078 49.8458 43.0078C53.276 43.0078 56.0568 46.1385 56.0568 50.0004Z" fill="#8040A8"/>
</svg>
