<svg width="70" height="86" viewBox="0 0 70 86" fill="none" xmlns="http://www.w3.org/2000/svg">
<path d="M35 0C25.7208 0.0105672 16.8248 3.57352 10.2634 9.90728C3.70198 16.241 0.0109842 24.8284 3.72364e-05 33.7857C-0.0110765 41.1056 2.46588 48.2269 7.05094 54.0571C7.05094 54.0571 8.00548 55.2704 8.16139 55.4454L35 86L61.8513 55.4301C61.9913 55.2673 62.9491 54.0571 62.9491 54.0571L62.9522 54.0479C67.535 48.2202 70.0108 41.1023 70 33.7857C69.989 24.8284 66.298 16.241 59.7366 9.90728C53.1752 3.57352 44.2792 0.0105672 35 0ZM35 46.0714C32.4828 46.0714 30.0221 45.3509 27.9291 44.0009C25.8361 42.6509 24.2048 40.7322 23.2415 38.4873C22.2782 36.2423 22.0262 33.7721 22.5173 31.3889C23.0084 29.0057 24.2205 26.8166 26.0005 25.0984C27.7804 23.3802 30.0482 22.2101 32.517 21.7361C34.9859 21.262 37.5449 21.5053 39.8705 22.4352C42.1961 23.3651 44.1838 24.9398 45.5823 26.9601C46.9808 28.9805 47.7273 31.3558 47.7273 33.7857C47.7231 37.0428 46.3808 40.1654 43.9949 42.4685C41.609 44.7717 38.3742 46.0674 35 46.0714Z" fill="#8040A8"/>
</svg>
