<svg width="20" height="20" viewBox="0 0 20 20" fill="none" xmlns="http://www.w3.org/2000/svg">
<path d="M18.4503 4.62874L15.3231 1.49024C14.915 1.10549 14.3801 0.884718 13.8204 0.869934C13.2606 0.85515 12.715 1.04738 12.2872 1.41006L2.01549 11.719C1.64658 12.0924 1.41688 12.5818 1.36494 13.105L0.874182 17.8815C0.858807 18.0492 0.880498 18.2183 0.937708 18.3767C0.994918 18.5351 1.08624 18.6789 1.20516 18.7978C1.3118 18.904 1.43828 18.988 1.57733 19.045C1.71639 19.102 1.86528 19.1309 2.01549 19.13H2.1182L6.87744 18.6947C7.39879 18.6426 7.8864 18.4121 8.25842 18.0418L18.5302 7.73288C18.9288 7.31018 19.1443 6.7461 19.1293 6.16425C19.1143 5.58239 18.8702 5.03023 18.4503 4.62874ZM6.67201 16.4039L3.2481 16.7246L3.55625 13.2883L10.0046 6.89671L13.0861 9.9894L6.67201 16.4039ZM14.5698 8.45451L11.5111 5.38473L13.7367 3.09386L16.8524 6.2209L14.5698 8.45451Z" fill="#F6F6F6"/>
</svg>
