<svg width="18" height="18" viewBox="0 0 18 18" fill="none" xmlns="http://www.w3.org/2000/svg">
<path d="M17.3297 3.70589L14.2472 0.61223C13.8449 0.232969 13.3177 0.0153549 12.766 0.000782175C12.2142 -0.0137905 11.6764 0.175695 11.2547 0.533195L1.12973 10.6949C0.76609 11.0629 0.539671 11.5453 0.488478 12.061L0.00472832 16.7693C-0.0104266 16.9347 0.0109544 17.1014 0.0673472 17.2575C0.12374 17.4136 0.213756 17.5553 0.330978 17.6725C0.436098 17.7772 0.560767 17.86 0.697834 17.9162C0.834901 17.9724 0.981671 18.0008 1.12973 18H1.23098L5.92223 17.5709C6.43613 17.5196 6.91677 17.2923 7.28348 16.9274L17.4085 6.76569C17.8015 6.34902 18.0138 5.793 17.9991 5.21946C17.9843 4.64592 17.7436 4.10164 17.3297 3.70589ZM5.71973 15.3128L2.34473 15.6289L2.64848 12.2417L9.00473 5.94146L12.0422 8.98997L5.71973 15.3128ZM13.5047 7.477L10.4897 4.45108L12.6835 2.19293L15.7547 5.27531L13.5047 7.477Z" fill="#A1A1A3"/>
</svg>
