<svg width="20" height="20" viewBox="0 0 20 20" fill="none" xmlns="http://www.w3.org/2000/svg">
<path d="M17.3735 12.3795L13.693 10.7303L13.6829 10.7256C13.4918 10.6439 13.2834 10.6111 13.0765 10.6302C12.8695 10.6493 12.6706 10.7197 12.4977 10.835C12.4774 10.8484 12.4578 10.8631 12.4391 10.8787L10.5376 12.4998C9.33289 11.9147 8.08914 10.6803 7.50399 9.49125L9.12742 7.56078C9.14305 7.54125 9.15789 7.52172 9.17196 7.50062C9.28479 7.3282 9.35325 7.13056 9.37124 6.92529C9.38923 6.72002 9.3562 6.51348 9.27508 6.32406V6.31469L7.62117 2.62797C7.51394 2.38052 7.32955 2.17438 7.09554 2.04034C6.86152 1.9063 6.59043 1.85153 6.32274 1.88422C5.26412 2.02352 4.29241 2.54341 3.58909 3.34679C2.88577 4.15017 2.49895 5.1821 2.50086 6.24984C2.50086 12.453 7.54774 17.4998 13.7509 17.4998C14.8186 17.5018 15.8505 17.1149 16.6539 16.4116C17.4573 15.7083 17.9772 14.7366 18.1165 13.678C18.1492 13.4104 18.0946 13.1393 17.9607 12.9053C17.8268 12.6713 17.6208 12.4869 17.3735 12.3795ZM13.7509 16.2498C11.0996 16.2469 8.55773 15.1924 6.68299 13.3177C4.80825 11.443 3.75376 8.90112 3.75086 6.24984C3.74792 5.48694 4.02278 4.74906 4.52409 4.17399C5.02541 3.59892 5.71891 3.22599 6.47508 3.12484C6.47477 3.12796 6.47477 3.1311 6.47508 3.13422L8.11571 6.80609L6.50086 8.7389C6.48447 8.75776 6.46958 8.77788 6.45633 8.79906C6.33876 8.97947 6.2698 9.18718 6.25611 9.40208C6.24242 9.61697 6.28448 9.83176 6.37821 10.0256C7.08602 11.4733 8.54461 12.9209 10.0079 13.628C10.2032 13.7208 10.4192 13.7614 10.6349 13.7458C10.8506 13.7302 11.0585 13.6589 11.2384 13.5389C11.2584 13.5254 11.2777 13.5108 11.2962 13.4952L13.1954 11.8748L16.8673 13.5194H16.8759C16.776 14.2766 16.4036 14.9715 15.8284 15.4741C15.2532 15.9766 14.5147 16.2524 13.7509 16.2498Z" fill="#F6F6F6"/>
<path d="M16.8735 12.5045L13.193 10.8553L13.1829 10.8506C12.9918 10.7689 12.7834 10.7361 12.5765 10.7552C12.3695 10.7743 12.1706 10.8447 11.9977 10.96C11.9774 10.9734 11.9578 10.9881 11.9391 11.0037L10.0376 12.6248C8.83289 12.0397 7.58914 10.8053 7.00399 9.61625L8.62742 7.68578C8.64305 7.66625 8.65789 7.64672 8.67196 7.62562C8.78479 7.4532 8.85325 7.25556 8.87124 7.05029C8.88923 6.84502 8.8562 6.63848 8.77508 6.44906V6.43969L7.12117 2.75297C7.01394 2.50552 6.82955 2.29938 6.59554 2.16534C6.36152 2.0313 6.09043 1.97653 5.82274 2.00922C4.76412 2.14852 3.79241 2.66841 3.08909 3.47179C2.38577 4.27517 1.99895 5.3071 2.00086 6.37484C2.00086 12.578 7.04774 17.6248 13.2509 17.6248C14.3186 17.6268 15.3505 17.2399 16.1539 16.5366C16.9573 15.8333 17.4772 14.8616 17.6165 13.803C17.6492 13.5354 17.5946 13.2643 17.4607 13.0303C17.3268 12.7963 17.1208 12.6119 16.8735 12.5045ZM13.2509 16.3748C10.5996 16.3719 8.05773 15.3174 6.18299 13.4427C4.30825 11.568 3.25376 9.02612 3.25086 6.37484C3.24792 5.61194 3.52278 4.87406 4.02409 4.29899C4.52541 3.72392 5.21891 3.35099 5.97508 3.24984C5.97477 3.25296 5.97477 3.2561 5.97508 3.25922L7.61571 6.93109L6.00086 8.8639C5.98447 8.88276 5.96958 8.90288 5.95633 8.92406C5.83876 9.10447 5.7698 9.31218 5.75611 9.52708C5.74242 9.74197 5.78448 9.95676 5.87821 10.1506C6.58602 11.5983 8.04461 13.0459 9.50789 13.753C9.70318 13.8458 9.91921 13.8864 10.1349 13.8708C10.3506 13.8552 10.5585 13.7839 10.7384 13.6639C10.7584 13.6504 10.7777 13.6358 10.7962 13.6202L12.6954 11.9998L16.3673 13.6444H16.3759C16.276 14.4016 15.9036 15.0965 15.3284 15.5991C14.7532 16.1016 14.0147 16.3774 13.2509 16.3748Z" fill="#F6F6F6"/>
</svg>
