<svg width="40" height="40" viewBox="0 0 40 40" fill="none" xmlns="http://www.w3.org/2000/svg">
<rect width="40" height="40" rx="20" fill="#F6F6F6"/>
<path d="M27.5834 18.396L20.5834 25.4168C20.5001 25.5001 20.4098 25.5593 20.3126 25.5943C20.2154 25.6293 20.1112 25.6465 20.0001 25.646C19.889 25.646 19.7848 25.6288 19.6876 25.5943C19.5904 25.5599 19.5001 25.5007 19.4167 25.4168L12.3959 18.396C12.2015 18.2015 12.1042 17.9585 12.1042 17.6668C12.1042 17.3752 12.2084 17.1252 12.4167 16.9168C12.6251 16.7085 12.8681 16.6043 13.1459 16.6043C13.4237 16.6043 13.6667 16.7085 13.8751 16.9168L20.0001 23.0418L26.1251 16.9168C26.3195 16.7224 26.5592 16.6252 26.8442 16.6252C27.1292 16.6252 27.3756 16.7293 27.5834 16.9377C27.7917 17.146 27.8959 17.389 27.8959 17.6668C27.8959 17.9446 27.7917 18.1876 27.5834 18.396Z" fill="#8040A8"/>
</svg>
