<svg width="20" height="20" viewBox="0 0 20 20" fill="none" xmlns="http://www.w3.org/2000/svg">
<path d="M7.39586 17.5832L14.4167 10.5832C14.5 10.4998 14.5592 10.4096 14.5942 10.3123C14.6292 10.2151 14.6464 10.1109 14.6459 9.99984C14.6459 9.88873 14.6286 9.78456 14.5942 9.68734C14.5598 9.59012 14.5006 9.49984 14.4167 9.4165L7.39586 2.39567C7.20142 2.20123 6.95836 2.104 6.6667 2.104C6.37503 2.104 6.12503 2.20817 5.9167 2.4165C5.70836 2.62484 5.6042 2.86789 5.6042 3.14567C5.6042 3.42345 5.70836 3.6665 5.9167 3.87484L12.0417 9.99984L5.9167 16.1248C5.72225 16.3193 5.62503 16.559 5.62503 16.844C5.62503 17.129 5.72919 17.3754 5.93753 17.5832C6.14586 17.7915 6.38892 17.8957 6.6667 17.8957C6.94447 17.8957 7.18753 17.7915 7.39586 17.5832Z" fill="#F6F6F6"/>
</svg>
