<svg width="24" height="25" viewBox="0 0 24 25" fill="none" xmlns="http://www.w3.org/2000/svg">
<g clip-path="url(#clip0_205_13038)">
<path d="M4.5 3.7998H22.5L20.25 13.5498H6.75M20.25 16.5498H7.5L3.75 0.799805H1.5" stroke="#F6F6F6" stroke-width="1.7" stroke-linecap="round" stroke-linejoin="round"/>
<path d="M18.75 21.0498C19.5784 21.0498 20.25 20.3782 20.25 19.5498C20.25 18.7214 19.5784 18.0498 18.75 18.0498C17.9216 18.0498 17.25 18.7214 17.25 19.5498C17.25 20.3782 17.9216 21.0498 18.75 21.0498Z" stroke="#F6F6F6" stroke-width="1.7" stroke-linecap="round" stroke-linejoin="round"/>
<path d="M9 21.0498C9.82843 21.0498 10.5 20.3782 10.5 19.5498C10.5 18.7214 9.82843 18.0498 9 18.0498C8.17157 18.0498 7.5 18.7214 7.5 19.5498C7.5 20.3782 8.17157 21.0498 9 21.0498Z" stroke="#F6F6F6" stroke-width="1.7" stroke-linecap="round" stroke-linejoin="round"/>
</g>
<defs>
<clipPath id="clip0_205_13038">
<rect width="24" height="24" fill="white" transform="translate(0 0.5)"/>
</clipPath>
</defs>
</svg>
