<svg width="30" height="30" viewBox="0 0 30 30" fill="none" xmlns="http://www.w3.org/2000/svg">
<path d="M19 4L25.3939 6.74025C25.7616 6.89783 26 7.25937 26 7.6594V10.382C26 10.7607 25.786 11.107 25.4472 11.2764L22.5528 12.7236C22.214 12.893 22 13.2393 22 13.618V25C22 25.5523 21.5523 26 21 26H9C8.44772 26 8 25.5523 8 25V13.618C8 13.2393 7.786 12.893 7.44721 12.7236L4.55279 11.2764C4.214 11.107 4 10.7607 4 10.382V7.6594C4 7.25937 4.2384 6.89783 4.60608 6.74025L11 4M19 4L16.8 5.65C15.7333 6.45 14.2667 6.45 13.2 5.65L11 4M19 4L18.2249 3.90311C16.0833 3.63541 13.9167 3.63541 11.7751 3.90311L11 4" stroke="#8040A8" stroke-width="1.5"/>
</svg>
