<svg width="35" height="36" viewBox="0 0 35 36" fill="none" xmlns="http://www.w3.org/2000/svg">
<rect y="0.5" width="35" height="35" rx="17.5" fill="#0DB051"/>
<path d="M15.114 23.5C14.9845 23.5 14.863 23.4793 14.7497 23.438C14.6363 23.3973 14.531 23.3277 14.4339 23.2293L10.256 18.9966C10.0779 18.8162 9.99271 18.5822 10.0005 18.2948C10.0089 18.008 10.1022 17.7744 10.2803 17.594C10.4584 17.4135 10.6851 17.3233 10.9604 17.3233C11.2357 17.3233 11.4624 17.4135 11.6405 17.594L15.114 21.113L23.3483 12.7707C23.5264 12.5902 23.7573 12.5 24.041 12.5C24.3241 12.5 24.5547 12.5902 24.7328 12.7707C24.9109 12.9512 25 13.1848 25 13.4715C25 13.759 24.9109 13.9929 24.7328 14.1734L15.7941 23.2293C15.697 23.3277 15.5917 23.3973 15.4784 23.438C15.365 23.4793 15.2435 23.5 15.114 23.5Z" fill="#F6F6F6"/>
</svg>
