<svg width="16" height="12" viewBox="0 0 16 12" fill="none" xmlns="http://www.w3.org/2000/svg">
<path d="M5.69073 11.3225C5.56537 11.3225 5.44783 11.3025 5.33814 11.2625C5.22844 11.2231 5.12658 11.1558 5.03255 11.0606L0.989458 6.96444C0.817078 6.7898 0.734649 6.5634 0.742171 6.28525C0.75032 6.00773 0.840584 5.78165 1.01296 5.60701C1.18534 5.43237 1.40474 5.34504 1.67114 5.34504C1.93755 5.34504 2.15694 5.43237 2.32932 5.60701L5.69073 9.01251L13.6594 0.93933C13.8318 0.764689 14.0552 0.677368 14.3298 0.677368C14.6037 0.677368 14.8269 0.764689 14.9993 0.93933C15.1716 1.11397 15.2578 1.34005 15.2578 1.61757C15.2578 1.89573 15.1716 2.12213 14.9993 2.29677L6.34891 11.0606C6.25489 11.1558 6.15303 11.2231 6.04333 11.2625C5.93363 11.3025 5.8161 11.3225 5.69073 11.3225V11.3225Z" fill="#F6F6F6"/>
</svg>
