<svg width="7" height="12" viewBox="0 0 7 12" fill="none" xmlns="http://www.w3.org/2000/svg">
<path d="M1.54687 0.3125L6.81249 5.5625C6.87499 5.625 6.91937 5.69271 6.94562 5.76563C6.97187 5.83854 6.98478 5.91667 6.98437 6C6.98437 6.08333 6.97145 6.16146 6.94562 6.23438C6.91978 6.30729 6.87541 6.375 6.81249 6.4375L1.54687 11.7031C1.40103 11.849 1.21874 11.9219 0.99999 11.9219C0.78124 11.9219 0.59374 11.8437 0.43749 11.6875C0.28124 11.5312 0.203115 11.349 0.203115 11.1406C0.203115 10.9323 0.28124 10.75 0.43749 10.5937L5.03124 6L0.437491 1.40625C0.291658 1.26042 0.218741 1.08063 0.218741 0.866876C0.218741 0.653126 0.296866 0.468334 0.453116 0.3125C0.609366 0.15625 0.791658 0.0781254 0.999991 0.0781254C1.20832 0.0781254 1.39062 0.15625 1.54687 0.3125Z" fill="#8040A8"/>
</svg>
