<svg width="12" height="13" viewBox="0 0 12 13" fill="none" xmlns="http://www.w3.org/2000/svg">
<path d="M1.45005 8.06241L5.65005 3.84991C5.70005 3.79991 5.75422 3.76441 5.81255 3.74341C5.87088 3.72241 5.93338 3.71208 6.00005 3.71241C6.06672 3.71241 6.12922 3.72274 6.18755 3.74341C6.24588 3.76408 6.30005 3.79958 6.35005 3.84991L10.5625 8.06241C10.6792 8.17908 10.7375 8.32491 10.7375 8.49991C10.7375 8.67491 10.675 8.82491 10.55 8.94991C10.425 9.07491 10.2792 9.13741 10.1125 9.13741C9.94588 9.13741 9.80005 9.07491 9.67505 8.94991L6.00005 5.27491L2.32505 8.94991C2.20838 9.06658 2.06455 9.12491 1.89355 9.12491C1.72255 9.12491 1.57472 9.06241 1.45005 8.93741C1.32505 8.81241 1.26255 8.66658 1.26255 8.49991C1.26255 8.33324 1.32505 8.18741 1.45005 8.06241Z" fill="#141418"/>
</svg>
