<svg width="30" height="30" viewBox="0 0 30 30" fill="none" xmlns="http://www.w3.org/2000/svg">
<path d="M20.0801 10.3945C20.0801 10.2656 19.9746 10.1602 19.8457 10.1602L17.9121 10.1689L15 13.6406L12.0908 10.1719L10.1543 10.1631C10.0254 10.1631 9.91992 10.2656 9.91992 10.3975C9.91992 10.4531 9.94043 10.5059 9.97559 10.5498L13.7871 15.0908L9.97559 19.6289C9.94018 19.6718 9.92054 19.7256 9.91992 19.7813C9.91992 19.9102 10.0254 20.0156 10.1543 20.0156L12.0908 20.0068L15 16.5352L17.9092 20.0039L19.8428 20.0127C19.9717 20.0127 20.0771 19.9102 20.0771 19.7783C20.0771 19.7227 20.0566 19.6699 20.0215 19.626L16.2158 15.0879L20.0273 10.5469C20.0625 10.5059 20.0801 10.4502 20.0801 10.3945Z" fill="#8040A8"/>
<path d="M15 1.9043C7.75195 1.9043 1.875 7.78125 1.875 15.0293C1.875 22.2773 7.75195 28.1543 15 28.1543C22.248 28.1543 28.125 22.2773 28.125 15.0293C28.125 7.78125 22.248 1.9043 15 1.9043ZM15 25.9277C8.98242 25.9277 4.10156 21.0469 4.10156 15.0293C4.10156 9.01172 8.98242 4.13086 15 4.13086C21.0176 4.13086 25.8984 9.01172 25.8984 15.0293C25.8984 21.0469 21.0176 25.9277 15 25.9277Z" fill="#8040A8"/>
</svg>
