<svg width="20" height="20" viewBox="0 0 20 20" fill="none" xmlns="http://www.w3.org/2000/svg">
<path d="M9.99996 12.3827C9.91107 12.3827 9.82774 12.3687 9.74996 12.3407C9.67218 12.3131 9.59996 12.266 9.53329 12.1993L7.13329 9.79935C7.01107 9.67713 6.94996 9.52157 6.94996 9.33268C6.94996 9.14379 7.01107 8.98824 7.13329 8.86602C7.25551 8.74379 7.41374 8.67979 7.60796 8.67402C7.80263 8.66868 7.96107 8.72713 8.08329 8.84935L9.33329 10.0993V5.33268C9.33329 5.14379 9.39729 4.98535 9.52529 4.85735C9.65285 4.72979 9.81107 4.66602 9.99996 4.66602C10.1888 4.66602 10.3473 4.72979 10.4753 4.85735C10.6028 4.98535 10.6666 5.14379 10.6666 5.33268V10.0993L11.9166 8.84935C12.0388 8.72713 12.1973 8.66868 12.392 8.67402C12.5862 8.67979 12.7444 8.74379 12.8666 8.86602C12.9888 8.98824 13.05 9.14379 13.05 9.33268C13.05 9.52157 12.9888 9.67713 12.8666 9.79935L10.4666 12.1993C10.4 12.266 10.3277 12.3131 10.25 12.3407C10.1722 12.3687 10.0888 12.3827 9.99996 12.3827ZM5.99996 15.3327C5.63329 15.3327 5.31951 15.2022 5.05863 14.9413C4.79729 14.68 4.66663 14.366 4.66663 13.9993V12.666C4.66663 12.4771 4.7304 12.3187 4.85796 12.1907C4.98596 12.0631 5.1444 11.9993 5.33329 11.9993C5.52218 11.9993 5.68063 12.0631 5.80863 12.1907C5.93618 12.3187 5.99996 12.4771 5.99996 12.666V13.9993H14V12.666C14 12.4771 14.064 12.3187 14.192 12.1907C14.3195 12.0631 14.4777 11.9993 14.6666 11.9993C14.8555 11.9993 15.0137 12.0631 15.1413 12.1907C15.2693 12.3187 15.3333 12.4771 15.3333 12.666V13.9993C15.3333 14.366 15.2028 14.68 14.942 14.9413C14.6806 15.2022 14.3666 15.3327 14 15.3327H5.99996Z" fill="white"/>
</svg>
