<svg width="26" height="26" viewBox="0 0 26 26" fill="none" xmlns="http://www.w3.org/2000/svg">
<path d="M0 13.0781C0.000732202 16.1929 1.10561 19.2053 3.11605 21.5739C5.12649 23.9424 7.91065 25.5118 10.9681 26V16.8583H7.67V13.0781H10.972V10.2005C10.8991 9.52695 10.9745 8.84555 11.1928 8.20465C11.4111 7.56374 11.767 6.97907 12.2351 6.49215C12.7033 6.00522 13.2723 5.62799 13.9017 5.38725C14.5311 5.14651 15.2055 5.04817 15.8769 5.0992C16.8519 5.11489 17.8269 5.20253 18.7889 5.3608V8.57721H17.1457C16.8664 8.54041 16.5825 8.56722 16.3149 8.65567C16.0473 8.74412 15.8029 8.89194 15.5997 9.08821C15.3965 9.28448 15.2398 9.52419 15.141 9.78961C15.0423 10.055 15.0041 10.3394 15.0293 10.6216V13.0781H18.6316L18.0557 16.8596H15.0293V26C17.4832 25.6098 19.7746 24.5203 21.6322 22.8605C23.4898 21.2006 24.8358 19.04 25.5109 16.6344C26.1859 14.2287 26.1618 11.6788 25.4412 9.2866C24.7207 6.89435 23.334 4.75994 21.4453 3.13605C19.5566 1.51216 17.2449 0.466816 14.7841 0.123768C12.3232 -0.219279 9.8162 0.154341 7.55983 1.2004C5.30346 2.24645 3.39224 3.92113 2.05245 6.02616C0.712652 8.13119 0.000394381 10.5784 0 13.0781Z" fill="#A1A1A3"/>
</svg>
