<svg width="30" height="30" viewBox="0 0 30 30" fill="none" xmlns="http://www.w3.org/2000/svg">
<rect x="30" y="30" width="30" height="30" rx="15" transform="rotate(-180 30 30)" fill="#F6F6F6"/>
<path d="M22.5834 13.3959L15.5834 20.4167C15.5001 20.5 15.4098 20.5592 15.3126 20.5942C15.2154 20.6292 15.1112 20.6464 15.0001 20.6459C14.889 20.6459 14.7848 20.6286 14.6876 20.5942C14.5904 20.5598 14.5001 20.5006 14.4167 20.4167L7.39592 13.3959C7.20147 13.2014 7.10425 12.9584 7.10425 12.6667C7.10425 12.375 7.20842 12.125 7.41675 11.9167C7.62508 11.7084 7.86814 11.6042 8.14592 11.6042C8.42369 11.6042 8.66675 11.7084 8.87508 11.9167L15.0001 18.0417L21.1251 11.9167C21.3195 11.7223 21.5592 11.625 21.8442 11.625C22.1292 11.625 22.3756 11.7292 22.5834 11.9375C22.7917 12.1459 22.8959 12.3889 22.8959 12.6667C22.8959 12.9445 22.7917 13.1875 22.5834 13.3959Z" fill="#572556"/>
</svg>
