<svg width="30" height="30" viewBox="0 0 30 30" fill="none" xmlns="http://www.w3.org/2000/svg">
<rect x="30" y="30" width="30" height="30" rx="15" transform="rotate(-180 30 30)" fill="#F6F6F6"/>
<rect x="5" y="26" width="20" height="20" rx="10" transform="rotate(-90 5 26)" fill="white"/>
<path d="M22.5834 13.396L15.5834 20.4168C15.5001 20.5002 15.4098 20.5593 15.3126 20.5943C15.2154 20.6293 15.1112 20.6465 15.0001 20.646C14.889 20.646 14.7848 20.6288 14.6876 20.5943C14.5904 20.5599 14.5001 20.5007 14.4167 20.4168L7.39592 13.396C7.20147 13.2015 7.10425 12.9585 7.10425 12.6668C7.10425 12.3752 7.20842 12.1252 7.41675 11.9168C7.62508 11.7085 7.86814 11.6043 8.14592 11.6043C8.42369 11.6043 8.66675 11.7085 8.87508 11.9168L15.0001 18.0418L21.1251 11.9168C21.3195 11.7224 21.5592 11.6252 21.8442 11.6252C22.1292 11.6252 22.3756 11.7293 22.5834 11.9377C22.7917 12.146 22.8959 12.389 22.8959 12.6668C22.8959 12.9446 22.7917 13.1877 22.5834 13.396Z" fill="#8040A8"/>
</svg>
