<svg width="13" height="13" viewBox="0 0 13 13" fill="none" xmlns="http://www.w3.org/2000/svg">
<path d="M6.75 9.375C6.92708 9.375 7.07563 9.315 7.19563 9.195C7.31521 9.07542 7.375 8.92708 7.375 8.75V6.23438C7.375 6.05729 7.31521 5.91146 7.19563 5.79688C7.07563 5.68229 6.92708 5.625 6.75 5.625C6.57292 5.625 6.42458 5.68479 6.305 5.80437C6.185 5.92437 6.125 6.07292 6.125 6.25V8.76562C6.125 8.94271 6.185 9.08854 6.305 9.20312C6.42458 9.31771 6.57292 9.375 6.75 9.375ZM6.75 4.375C6.92708 4.375 7.07563 4.315 7.19563 4.195C7.31521 4.07542 7.375 3.92708 7.375 3.75C7.375 3.57292 7.31521 3.42438 7.19563 3.30438C7.07563 3.18479 6.92708 3.125 6.75 3.125C6.57292 3.125 6.42458 3.18479 6.305 3.30438C6.185 3.42438 6.125 3.57292 6.125 3.75C6.125 3.92708 6.185 4.07542 6.305 4.195C6.42458 4.315 6.57292 4.375 6.75 4.375ZM6.75 12.5C5.88542 12.5 5.07292 12.3358 4.3125 12.0075C3.55208 11.6796 2.89062 11.2344 2.32813 10.6719C1.76563 10.1094 1.32042 9.44792 0.9925 8.6875C0.664167 7.92708 0.5 7.11458 0.5 6.25C0.5 5.38542 0.664167 4.57292 0.9925 3.8125C1.32042 3.05208 1.76563 2.39062 2.32813 1.82813C2.89062 1.26563 3.55208 0.820208 4.3125 0.491875C5.07292 0.163958 5.88542 0 6.75 0C7.61458 0 8.42708 0.163958 9.1875 0.491875C9.94792 0.820208 10.6094 1.26563 11.1719 1.82813C11.7344 2.39062 12.1796 3.05208 12.5075 3.8125C12.8358 4.57292 13 5.38542 13 6.25C13 7.11458 12.8358 7.92708 12.5075 8.6875C12.1796 9.44792 11.7344 10.1094 11.1719 10.6719C10.6094 11.2344 9.94792 11.6796 9.1875 12.0075C8.42708 12.3358 7.61458 12.5 6.75 12.5ZM6.75 11.25C8.13542 11.25 9.31521 10.7631 10.2894 9.78938C11.2631 8.81521 11.75 7.63542 11.75 6.25C11.75 4.86458 11.2631 3.68479 10.2894 2.71062C9.31521 1.73687 8.13542 1.25 6.75 1.25C5.36458 1.25 4.185 1.73687 3.21125 2.71062C2.23708 3.68479 1.75 4.86458 1.75 6.25C1.75 7.63542 2.23708 8.81521 3.21125 9.78938C4.185 10.7631 5.36458 11.25 6.75 11.25Z" fill="#313131"/>
</svg>
