<svg width="100" height="100" viewBox="0 0 100 100" fill="none" xmlns="http://www.w3.org/2000/svg">
<path fill-rule="evenodd" clip-rule="evenodd" d="M2.92893 2.92893C0 5.85786 0 10.5719 0 20V80C0 89.4281 0 94.1421 2.92893 97.0711C5.85786 100 10.5719 100 20 100H80C89.4281 100 94.1421 100 97.0711 97.0711C100 94.1421 100 89.4281 100 80V20C100 10.5719 100 5.85786 97.0711 2.92893C94.1421 0 89.4281 0 80 0H20C10.5719 0 5.85786 0 2.92893 2.92893ZM50.7783 47.0634L29.4449 68.3968C28.5783 69.2634 28.5783 70.6856 29.4449 71.5523C29.6505 71.7583 29.8947 71.9218 30.1635 72.0333C30.4324 72.1448 30.7205 72.2022 31.0116 72.2022C31.3026 72.2022 31.5908 72.1448 31.8596 72.0333C32.1285 71.9218 32.3727 71.7583 32.5783 71.5523L53.9338 50.1968L57.0671 53.3301L55.5116 54.9079C55.3006 55.1129 55.1329 55.3582 55.0183 55.6292C54.9038 55.9002 54.8448 56.1914 54.8448 56.4856C54.8448 56.7799 54.9038 57.0711 55.0183 57.3421C55.1329 57.6131 55.3006 57.8584 55.5116 58.0634L57.0671 59.619C57.9338 60.4856 59.356 60.4856 60.2227 59.619L72.7783 47.0634C73.6449 46.1968 73.6449 44.7745 72.7783 43.9079L71.2227 42.3301C70.356 41.4634 68.9338 41.4634 68.0671 42.3301L66.4894 43.9079L63.356 40.7745C64.2227 39.9079 64.2227 38.4856 63.356 37.619C63.1504 37.413 62.9062 37.2495 62.6374 37.138C62.3686 37.0265 62.0804 36.9691 61.7894 36.9691C61.4983 36.9691 61.2101 37.0265 60.9413 37.138C60.6725 37.2495 60.4283 37.413 60.2227 37.619L57.0671 34.4412L58.6449 32.9079C59.5116 32.0412 59.5116 30.6412 58.6449 29.7745L57.0671 28.1968C56.8616 27.9907 56.6174 27.8273 56.3485 27.7158C56.0797 27.6043 55.7915 27.5469 55.5005 27.5469C55.2094 27.5469 54.9213 27.6043 54.6524 27.7158C54.3836 27.8273 54.1394 27.9907 53.9338 28.1968L41.356 40.7745C41.15 40.9801 40.9866 41.2243 40.8751 41.4931C40.7636 41.762 40.7062 42.0502 40.7062 42.3412C40.7062 42.6322 40.7636 42.9204 40.8751 43.1892C40.9866 43.4581 41.15 43.7023 41.356 43.9079L42.9338 45.4856C43.1394 45.6916 43.3836 45.8551 43.6524 45.9666C43.9213 46.0781 44.2094 46.1355 44.5005 46.1355C44.7915 46.1355 45.0797 46.0781 45.3485 45.9666C45.6174 45.8551 45.8616 45.6916 46.0671 45.4856L47.6671 43.9079L50.7783 47.0634ZM71.921 66.854C71.0875 66.0206 69.957 65.5523 68.7783 65.5523H55.4449C54.2662 65.5523 53.1357 66.0206 52.3022 66.854C51.4687 67.6875 51.0005 68.818 51.0005 69.9967V71.219C51.0005 71.7713 51.4482 72.219 52.0005 72.219H72.2227C72.775 72.219 73.2227 71.7713 73.2227 71.219V69.9967C73.2227 68.818 72.7544 67.6875 71.921 66.854Z" fill="#8040A8"/>
</svg>
