<svg width="100" height="100" viewBox="0 0 100 100" fill="none" xmlns="http://www.w3.org/2000/svg">
<path fill-rule="evenodd" clip-rule="evenodd" d="M2.92893 2.92893C0 5.85786 0 10.5719 0 20V80C0 89.4281 0 94.1421 2.92893 97.0711C5.85786 100 10.5719 100 20 100H80C89.4281 100 94.1421 100 97.0711 97.0711C100 94.1421 100 89.4281 100 80V20C100 10.5719 100 5.85786 97.0711 2.92893C94.1421 0 89.4281 0 80 0H20C10.5719 0 5.85786 0 2.92893 2.92893ZM50.0004 32.2227C52.3579 32.2227 54.6188 33.1592 56.2858 34.8262C57.9528 36.4931 58.8893 38.7541 58.8893 41.1115C58.8893 43.469 57.9528 45.7299 56.2858 47.3969C54.6188 49.0639 52.3579 50.0004 50.0004 50.0004C47.643 50.0004 45.382 49.0639 43.715 47.3969C42.048 45.7299 41.1115 43.469 41.1115 41.1115C41.1115 38.7541 42.048 36.4931 43.715 34.8262C45.382 33.1592 47.643 32.2227 50.0004 32.2227ZM50.0004 52.2227C55.9338 52.2227 67.7782 55.1782 67.7782 61.1115V66.7782C67.7782 67.3305 67.3305 67.7782 66.7782 67.7782H33.2227C32.6704 67.7782 32.2227 67.3305 32.2227 66.7782V61.1115C32.2227 55.1782 44.0671 52.2227 50.0004 52.2227Z" fill="#8040A8"/>
</svg>
