<svg width="100" height="100" viewBox="0 0 100 100" fill="none" xmlns="http://www.w3.org/2000/svg">
<path fill-rule="evenodd" clip-rule="evenodd" d="M2.92893 2.92893C0 5.85786 0 10.5719 0 20V80C0 89.4281 0 94.1421 2.92893 97.0711C5.85786 100 10.5719 100 20 100H80C89.4281 100 94.1421 100 97.0711 97.0711C100 94.1421 100 89.4281 100 80V20C100 10.5719 100 5.85786 97.0711 2.92893C94.1421 0 89.4281 0 80 0H20C10.5719 0 5.85786 0 2.92893 2.92893ZM40.9958 26.9032C44.3027 26.3611 47.6491 26.0958 51.0002 26.1099C55.0624 26.1099 58.4202 26.4677 61.0047 26.9032L61.3047 26.9544C63.5491 27.3299 65.4158 27.6432 66.8736 29.4388C67.8091 30.5921 68.1113 31.8388 68.1802 33.2277L69.2735 33.5921C70.3024 33.9344 71.2069 34.2366 71.9202 34.5699C72.6936 34.9299 73.4024 35.3921 73.9447 36.1455C74.4869 36.8966 74.7024 37.7166 74.8002 38.5632C74.8891 39.3477 74.8891 40.2966 74.8891 41.3855V41.7055C74.8891 42.5988 74.8891 43.3877 74.8224 44.0477C74.7513 44.761 74.5936 45.4566 74.2002 46.1277C73.8024 46.801 73.2713 47.2766 72.6824 47.6855C72.138 48.0632 71.4491 48.4477 70.6669 48.881L64.8002 52.141C63.6002 54.4988 61.9558 56.601 59.6891 58.1188C57.7447 59.4232 55.418 60.2499 52.6669 60.4855V64.9988H55.8447C56.7437 64.9988 57.615 65.3104 58.3103 65.8804C59.0055 66.4505 59.4818 67.2438 59.658 68.1255L60.1447 70.5544H64.3335C64.7756 70.5544 65.1995 70.7299 65.5121 71.0425C65.8246 71.3551 66.0002 71.779 66.0002 72.221C66.0002 72.663 65.8246 73.087 65.5121 73.3995C65.1995 73.7121 64.7756 73.8877 64.3335 73.8877H37.6669C37.2249 73.8877 36.8009 73.7121 36.4884 73.3995C36.1758 73.087 36.0002 72.663 36.0002 72.221C36.0002 71.779 36.1758 71.3551 36.4884 71.0425C36.8009 70.7299 37.2249 70.5544 37.6669 70.5544H41.8558L42.3424 68.1255C42.5187 67.2438 42.9949 66.4505 43.6902 65.8804C44.3854 65.3104 45.2567 64.9988 46.1558 64.9988H49.3335V60.4855C46.5824 60.2499 44.2558 59.4232 42.3113 58.121C40.0469 56.601 38.4002 54.4988 37.2002 52.141L31.3335 48.881C30.6432 48.5145 29.9706 48.1156 29.318 47.6855C28.7034 47.2861 28.1856 46.7547 27.8024 46.1299C27.4415 45.4911 27.2281 44.7797 27.178 44.0477C27.1113 43.3877 27.1113 42.5988 27.1113 41.7055V41.3832C27.1113 40.2988 27.1113 39.3477 27.2002 38.5632C27.298 37.7166 27.5113 36.8966 28.0558 36.1455C28.598 35.3921 29.3069 34.9299 30.078 34.5677C30.795 34.2347 31.696 33.935 32.7236 33.5932L32.7237 33.5932L32.7238 33.5931L32.7269 33.5921L33.8202 33.2277C33.8891 31.8366 34.1913 30.5921 35.1269 29.4388C36.5869 27.641 38.4513 27.3277 40.698 26.9544L40.9958 26.9032ZM33.8936 36.7166L33.8624 36.7277C32.7291 37.1055 32.0091 37.3499 31.4847 37.5921C31.0024 37.8144 30.8469 37.9721 30.7602 38.0944C30.6713 38.2144 30.5735 38.4121 30.5135 38.941C30.4469 39.5144 30.4447 40.2744 30.4447 41.4699V41.6321C30.4447 42.621 30.4447 43.241 30.4936 43.7166C30.538 44.1521 30.6091 44.3277 30.6758 44.4388C30.7402 44.5499 30.858 44.6966 31.218 44.9477C31.6091 45.2188 32.1513 45.521 33.018 46.0032L35.3847 47.3188C34.4336 43.8299 34.0513 40.0966 33.8958 36.7188L33.8936 36.7166ZM66.6158 47.3166C67.5669 43.8277 67.9491 40.0944 68.1069 36.7166L68.138 36.7277C69.2713 37.1055 69.9913 37.3499 70.5158 37.5921C70.998 37.8144 71.1535 37.9721 71.2402 38.0944C71.3291 38.2144 71.4269 38.4121 71.4869 38.941C71.5536 39.5144 71.5558 40.2744 71.5558 41.4699V41.6321C71.5558 42.621 71.5558 43.241 71.5069 43.7166C71.4624 44.1521 71.3913 44.3277 71.3247 44.4388C71.2602 44.5499 71.1424 44.6966 70.7824 44.9477C70.3891 45.2188 69.8491 45.521 68.9824 46.0032L66.6158 47.3166Z" fill="#8040A8"/>
</svg>
