<svg width="26" height="26" viewBox="0 0 26 26" fill="none" xmlns="http://www.w3.org/2000/svg">
<path fill-rule="evenodd" clip-rule="evenodd" d="M13 26C20.1797 26 26 20.1797 26 13C26 5.8203 20.1797 0 13 0C5.8203 0 0 5.8203 0 13C0 20.1797 5.8203 26 13 26ZM14.3304 13.8889C14.5062 13.6258 14.6 13.3165 14.6 13C14.5987 12.5761 14.4297 12.1699 14.1299 11.8701C13.8301 11.5703 13.4239 11.4013 13 11.4C12.6835 11.4 12.3742 11.4938 12.1111 11.6696C11.848 11.8455 11.6429 12.0953 11.5218 12.3877C11.4007 12.6801 11.369 13.0018 11.4307 13.3121C11.4925 13.6225 11.6449 13.9076 11.8686 14.1314C12.0924 14.3551 12.3775 14.5075 12.6879 14.5693C12.9982 14.631 13.3199 14.5993 13.6123 14.4782C13.9047 14.3571 14.1545 14.152 14.3304 13.8889ZM18 15.2V10.8C18 10.0574 17.705 9.3452 17.1799 8.8201C16.6548 8.295 15.9426 8 15.2 8H10.8C10.0574 8 9.3452 8.295 8.8201 8.8201C8.295 9.3452 8 10.0574 8 10.8V15.2C8 15.9426 8.295 16.6548 8.8201 17.1799C9.3452 17.705 10.0574 18 10.8 18H15.2C15.9426 18 16.6548 17.705 17.1799 17.1799C17.705 16.6548 18 15.9426 18 15.2ZM14.9955 11.6666C15.2592 12.0613 15.4 12.5253 15.4 13C15.4 13.6365 15.1471 14.247 14.6971 14.6971C14.247 15.1471 13.6365 15.4 13 15.4C12.5253 15.4 12.0613 15.2592 11.6666 14.9955C11.272 14.7318 10.9643 14.357 10.7827 13.9184C10.601 13.4799 10.5535 12.9973 10.6461 12.5318C10.7387 12.0662 10.9673 11.6386 11.3029 11.3029C11.6386 10.9673 12.0662 10.7387 12.5318 10.6461C12.9973 10.5535 13.4799 10.601 13.9184 10.7827C14.357 10.9643 14.7318 11.272 14.9955 11.6666ZM16.0989 10.0667C16.1648 10.1653 16.2 10.2813 16.2 10.4C16.2 10.5591 16.1368 10.7117 16.0243 10.8243C15.9117 10.9368 15.7591 11 15.6 11C15.4813 11 15.3653 10.9648 15.2667 10.8989C15.168 10.833 15.0911 10.7392 15.0457 10.6296C15.0003 10.52 14.9884 10.3993 15.0115 10.2829C15.0347 10.1666 15.0918 10.0596 15.1757 9.97574C15.2596 9.89182 15.3666 9.83468 15.4829 9.81153C15.5993 9.78838 15.72 9.80026 15.8296 9.84567C15.9392 9.89108 16.033 9.96799 16.0989 10.0667Z" fill="#A1A1A3"/>
</svg>
