<svg width="30" height="30" viewBox="0 0 30 30" fill="none" xmlns="http://www.w3.org/2000/svg">
<path d="M14 9C14.2652 9 14.5196 9.10536 14.7071 9.29289C14.8946 9.48043 15 9.73478 15 10C15 10.2652 14.8946 10.5196 14.7071 10.7071C14.5196 10.8946 14.2652 11 14 11H8V22H19V16C19 15.7348 19.1054 15.4804 19.2929 15.2929C19.4804 15.1054 19.7348 15 20 15C20.2652 15 20.5196 15.1054 20.7071 15.2929C20.8946 15.4804 21 15.7348 21 16V22C21 22.5304 20.7893 23.0391 20.4142 23.4142C20.0391 23.7893 19.5304 24 19 24H8C7.46957 24 6.96086 23.7893 6.58579 23.4142C6.21071 23.0391 6 22.5304 6 22V11C6 10.4696 6.21071 9.96086 6.58579 9.58579C6.96086 9.21071 7.46957 9 8 9H14ZM23 6C23.2652 6 23.5196 6.10536 23.7071 6.29289C23.8946 6.48043 24 6.73478 24 7V12C24 12.2652 23.8946 12.5196 23.7071 12.7071C23.5196 12.8946 23.2652 13 23 13C22.7348 13 22.4804 12.8946 22.2929 12.7071C22.1054 12.5196 22 12.2652 22 12V9.414L13.707 17.707C13.5184 17.8892 13.2658 17.99 13.0036 17.9877C12.7414 17.9854 12.4906 17.8802 12.3052 17.6948C12.1198 17.5094 12.0146 17.2586 12.0123 16.9964C12.01 16.7342 12.1108 16.4816 12.293 16.293L20.586 8H18C17.7348 8 17.4804 7.89464 17.2929 7.70711C17.1054 7.51957 17 7.26522 17 7C17 6.73478 17.1054 6.48043 17.2929 6.29289C17.4804 6.10536 17.7348 6 18 6H23Z" fill="#383838"/>
</svg>
