<svg width="26" height="26" viewBox="0 0 26 26" fill="none" xmlns="http://www.w3.org/2000/svg">
<path fill-rule="evenodd" clip-rule="evenodd" d="M13 26C20.1797 26 26 20.1797 26 13C26 5.8203 20.1797 0 13 0C5.8203 0 0 5.8203 0 13C0 20.1797 5.8203 26 13 26ZM9.40717 9.39239C9.40717 11.1968 11.0336 12.7217 12.9904 12.7217L13.0022 12.7224C13.9464 12.725 14.853 12.3757 15.5229 11.7513C16.1927 11.1268 16.5709 10.2784 16.5744 9.39239C16.5744 7.52492 15.0152 6 12.9911 6C11.0336 6 9.40717 7.52557 9.40717 9.39239ZM11.5316 9.39304C11.5316 8.61433 12.162 7.96107 12.9904 7.96107C13.8535 7.96107 14.4513 8.61368 14.4506 9.39304C14.4506 10.1705 13.8535 10.762 12.9911 10.762C12.162 10.762 11.5316 10.1705 11.5316 9.39304ZM16.4421 17.3283L14.4181 15.4927C15.1814 15.275 15.9115 14.9948 16.5411 14.6211C17.0059 14.3715 17.1396 13.75 16.8404 13.2827C16.5418 12.816 15.9122 12.6918 15.3809 13.0032C14.6615 13.4152 13.835 13.6331 12.9922 13.6331C12.1494 13.6331 11.3229 13.4152 10.6034 13.0032C10.0721 12.6918 9.47505 12.816 9.14325 13.2827C8.87795 13.75 8.97701 14.3721 9.47505 14.6211C10.1411 14.9926 10.8538 15.285 11.5967 15.4914L9.53947 17.3277C9.14117 17.732 9.14117 18.3235 9.53947 18.6973C9.77221 18.8832 10.0375 18.9768 10.2696 18.9768C10.5688 18.9768 10.8348 18.8838 11.0336 18.6973L12.9911 16.8298L15.0152 18.6973C15.347 19.1009 16.0112 19.1009 16.4421 18.6973C16.8404 18.3235 16.8404 17.732 16.4421 17.3283Z" fill="#A1A1A3"/>
</svg>
