<svg width="12" height="12" viewBox="0 0 12 12" fill="none" xmlns="http://www.w3.org/2000/svg">
<path d="M10.9978 2.82315L9.14831 0.966947C8.90693 0.739391 8.59062 0.608822 8.25956 0.600079C7.9285 0.591335 7.60579 0.705027 7.35281 0.919526L1.27781 7.01653C1.05963 7.23735 0.923778 7.52678 0.893063 7.83624L0.602813 10.6612C0.59372 10.7604 0.606548 10.8604 0.640384 10.9541C0.67422 11.0478 0.728229 11.1328 0.798563 11.2031C0.861635 11.2659 0.936436 11.3156 1.01868 11.3493C1.10092 11.383 1.18898 11.4001 1.27781 11.3996H1.33856L4.15331 11.1422C4.46165 11.1113 4.75004 10.975 4.97006 10.756L11.0451 4.65902C11.2809 4.40902 11.4083 4.07541 11.3994 3.73128C11.3906 3.38716 11.2461 3.0606 10.9978 2.82315ZM4.03181 9.78728L2.00681 9.97696L2.18906 7.94463L6.00281 4.16449L7.82531 5.99359L4.03181 9.78728ZM8.70282 5.08581L6.89381 3.27026L8.21006 1.91537L10.0528 3.76479L8.70282 5.08581Z" fill="#141418"/>
</svg>
