<svg width="16" height="19" viewBox="0 0 16 19" fill="none" xmlns="http://www.w3.org/2000/svg">
<path d="M15.04 3.45455H12.16V2.41818C12.16 1.77684 11.924 1.16177 11.5039 0.708269C11.0838 0.254772 10.5141 0 9.92 0H6.08C5.48592 0 4.91616 0.254772 4.49608 0.708269C4.076 1.16177 3.84 1.77684 3.84 2.41818V3.45455H0.96C0.705392 3.45455 0.461212 3.56373 0.281178 3.75809C0.101143 3.95245 0 4.21605 0 4.49091C0 4.76577 0.101143 5.02937 0.281178 5.22373C0.461212 5.41808 0.705392 5.52727 0.96 5.52727H1.28V17.2727C1.28 17.7308 1.44857 18.1702 1.74863 18.4941C2.04869 18.818 2.45565 19 2.88 19H13.12C13.5443 19 13.9513 18.818 14.2514 18.4941C14.5514 18.1702 14.72 17.7308 14.72 17.2727V5.52727H15.04C15.2946 5.52727 15.5388 5.41808 15.7188 5.22373C15.8989 5.02937 16 4.76577 16 4.49091C16 4.21605 15.8989 3.95245 15.7188 3.75809C15.5388 3.56373 15.2946 3.45455 15.04 3.45455ZM5.76 2.41818C5.76 2.32656 5.79371 2.23869 5.85373 2.17391C5.91374 2.10912 5.99513 2.07273 6.08 2.07273H9.92C10.0049 2.07273 10.0863 2.10912 10.1463 2.17391C10.2063 2.23869 10.24 2.32656 10.24 2.41818V3.45455H5.76V2.41818ZM12.8 16.9273H3.2V5.52727H12.8V16.9273ZM7.04 8.29091V13.8182C7.04 14.093 6.93886 14.3566 6.75882 14.551C6.57879 14.7454 6.33461 14.8545 6.08 14.8545C5.82539 14.8545 5.58121 14.7454 5.40118 14.551C5.22114 14.3566 5.12 14.093 5.12 13.8182V8.29091C5.12 8.01605 5.22114 7.75245 5.40118 7.55809C5.58121 7.36373 5.82539 7.25455 6.08 7.25455C6.33461 7.25455 6.57879 7.36373 6.75882 7.55809C6.93886 7.75245 7.04 8.01605 7.04 8.29091ZM10.88 8.29091V13.8182C10.88 14.093 10.7789 14.3566 10.5988 14.551C10.4188 14.7454 10.1746 14.8545 9.92 14.8545C9.66539 14.8545 9.42121 14.7454 9.24118 14.551C9.06114 14.3566 8.96 14.093 8.96 13.8182V8.29091C8.96 8.01605 9.06114 7.75245 9.24118 7.55809C9.42121 7.36373 9.66539 7.25455 9.92 7.25455C10.1746 7.25455 10.4188 7.36373 10.5988 7.55809C10.7789 7.75245 10.88 8.01605 10.88 8.29091Z" fill="#E0E0E0"/>
</svg>
